<svg xmlns="http://www.w3.org/2000/svg" viewBox="0 0 1448 1087">
  <defs>
    <linearGradient id="bg" x1="0" y1="0" x2="0" y2="1">
      <stop offset="0%" stop-color="#F7F5F1"/>
      <stop offset="100%" stop-color="#EDE9E1"/>
    </linearGradient>
    <linearGradient id="tnk" x1="0" y1="0" x2="0" y2="1">
      <stop offset="0%" stop-color="#3A4445"/>
      <stop offset="100%" stop-color="#1C2829"/>
    </linearGradient>
  </defs>
  <rect width="1448" height="1087" fill="url(#bg)"/>
  <ellipse cx="724" cy="908" rx="650" ry="44" fill="#000" fill-opacity="0.08"/>
  <rect x="60" y="330" width="940" height="400" rx="40" fill="url(#tnk)"/>
  <ellipse cx="530" cy="330" rx="470" ry="22" fill="#4A5758"/>
  <text x="510" y="448" font-family="Arial,Helvetica,sans-serif" font-size="52" font-weight="900" fill="#F7F5F1" fill-opacity="0.9" text-anchor="middle" letter-spacing="4">PROSETEL&#xB7;95</text>
  <rect x="60" y="490" width="940" height="60" fill="#E62B27"/>
  <circle cx="642" cy="330" r="42" fill="#2C3435" stroke="#1A2020" stroke-width="6"/>
  <circle cx="642" cy="330" r="24" fill="#E62B27"/>
  <path d="M1000 544 L1000 372 Q1000 342 1028 342 L1272 342 Q1338 342 1370 408 L1392 458 L1392 544Z" fill="#2C3435"/>
  <path d="M1018 380 L1260 380 L1318 430 L1338 536 L1018 536Z" fill="#7BB3D0" fill-opacity="0.85"/>
  <path d="M1030 387 L1148 387 L1188 442 L1030 442Z" fill="#A8D4E8" fill-opacity="0.5"/>
  <rect x="1272" y="242" width="28" height="138" rx="6" fill="#1A2020"/>
  <rect x="1267" y="238" width="38" height="20" rx="6" fill="#1A2020"/>
  <rect x="1374" y="472" width="22" height="44" rx="8" fill="#F5D040"/>
  <rect x="60" y="732" width="1362" height="24" rx="8" fill="#0F1818"/>
  <circle cx="218" cy="824" r="110" fill="#1A2020"/>
  <circle cx="218" cy="824" r="74" fill="#333E3E"/>
  <circle cx="218" cy="824" r="32" fill="#0F1818"/>
  <circle cx="384" cy="824" r="110" fill="#1A2020"/>
  <circle cx="384" cy="824" r="74" fill="#333E3E"/>
  <circle cx="384" cy="824" r="32" fill="#0F1818"/>
  <circle cx="1194" cy="824" r="110" fill="#1A2020"/>
  <circle cx="1194" cy="824" r="74" fill="#333E3E"/>
  <circle cx="1194" cy="824" r="32" fill="#0F1818"/>
  <rect x="48" y="48" width="150" height="72" rx="14" fill="#E62B27"/>
  <text x="123" y="104" font-family="Arial,Helvetica,sans-serif" font-size="48" font-weight="900" fill="#ffffff" text-anchor="middle">06</text>
</svg>